PathFileType	4	(X/Y/Z)	Kaydara	
DataRate	CameraRate	NumFrames	NumMarkers	Units	OrigDataRate	OrigDataStartFrame	OrigNumFrames	
60.00	60.00	4	74	mm	60.00	1629	181	
Frame#	Time	Z_lasi			Z_rasi			Z_rpsi			Z_lpsi			Z_fneck			Z_bneck			Z_fhead			Z_rhead			Z_lhead			Z_rshld			Z_relbtop			Z_relbext			Z_relblow			Z_rwrext			Z_rwrtop			Z_rwrlow			Z_lshld			Z_lelbext			Z_lelblow			Z_lelbtop			Z_lwrext			Z_lwrtop			Z_lwrlow			Z_rtopleg			Z_ltopleg			Z_rkneefr			Z_rkneebk			Z_rkneeis			Z_lkneefr			Z_lknssbk			Z_lkneeis			Z_rankfr			Z_rankis			Z_rankbk			Z_lankfr			Z_lankbk			Z_lankis			A_lasi			A_rasi			A_rpsi			A_lpsi			A_fneck			A_bneck			A_fhead			A_rhead			A_lhead			A_rshld			A_relbtop			A_relbext			A_relblow			A_rwrext			A_rwrtop			A_rwrlow			A_lshld			A_lelbext			A_lelblow			A_lelbtop			A_lwrext			A_lwrtop			A_lwrlow			A_rtopleg			A_ltopleg			A_rkneefr			A_rkneebk			A_rkneeis			A_lkneefr			A_lknssbk			A_lkneeis			A_rankfr			A_rankis			A_rankbk			A_lankfr			A_lankbk			A_lankis			
		X1	Y1	Z1	X2	Y2	Z2	X3	Y3	Z3	X4	Y4	Z4	X5	Y5	Z5	X6	Y6	Z6	X7	Y7	Z7	X8	Y8	Z8	X9	Y9	Z9	X10	Y10	Z10	X11	Y11	Z11	X12	Y12	Z12	X13	Y13	Z13	X14	Y14	Z14	X15	Y15	Z15	X16	Y16	Z16	X17	Y17	Z17	X18	Y18	Z18	X19	Y19	Z19	X20	Y20	Z20	X21	Y21	Z21	X22	Y22	Z22	X23	Y23	Z23	X24	Y24	Z24	X25	Y25	Z25	X26	Y26	Z26	X27	Y27	Z27	X28	Y28	Z28	X29	Y29	Z29	X30	Y30	Z30	X31	Y31	Z31	X32	Y32	Z32	X33	Y33	Z33	X34	Y34	Z34	X35	Y35	Z35	X36	Y36	Z36	X37	Y37	Z37	X38	Y38	Z38	X39	Y39	Z39	X40	Y40	Z40	X41	Y41	Z41	X42	Y42	Z42	X43	Y43	Z43	X44	Y44	Z44	X45	Y45	Z45	X46	Y46	Z46	X47	Y47	Z47	X48	Y48	Z48	X49	Y49	Z49	X50	Y50	Z50	X51	Y51	Z51	X52	Y52	Z52	X53	Y53	Z53	X54	Y54	Z54	X55	Y55	Z55	X56	Y56	Z56	X57	Y57	Z57	X58	Y58	Z58	X59	Y59	Z59	X60	Y60	Z60	X61	Y61	Z61	X62	Y62	Z62	X63	Y63	Z63	X64	Y64	Z64	X65	Y65	Z65	X66	Y66	Z66	X67	Y67	Z67	X68	Y68	Z68	X69	Y69	Z69	X70	Y70	Z70	X71	Y71	Z71	X72	Y72	Z72	X73	Y73	Z73	X74	Y74	Z74	

159	27.133	-241.63548	1070.48904	581.00334	-310.32501	1070.98541	383.88168	-143.49307	1110.36766	289.61481	-58.94243	1100.55756	522.93011	-262.14249	1446.02859	458.37044	-153.54250	1505.46432	434.63814	-326.28716	1663.11096	464.52801	-217.38808	1634.08234	339.07318	-156.86256	1638.57407	476.01498	-245.04707	1433.56186	240.59933	-199.51269	1115.33348	154.55321	-168.18769	1099.84032	205.46465	-262.40993	1122.05521	198.73835	-283.37271	882.84172	168.57054	-315.41431	895.12398	199.57020	-289.40029	891.88950	233.89702	-156.50313	1456.43768	627.05086	-90.36616	1143.61473	638.81157	-149.97910	1159.57031	703.81989	-81.03145	1164.31862	706.76262	-198.70182	900.38544	696.75560	-184.77285	894.01207	741.17561	-138.89603	892.86491	730.46730	-185.22474	918.15147	253.02961	-144.35833	895.37460	619.78519	-206.82003	415.28732	346.58077	-140.99443	443.24085	292.64912	-140.80710	435.67383	417.13676	-226.31393	454.77570	650.51743	-120.33190	480.95425	643.15575	-206.00550	443.74489	558.70449	-158.94229	172.84370	344.74583	-134.60794	174.75380	407.68024	-81.88579	168.22962	339.55276	-137.88861	179.07291	699.24835	-78.01385	178.56691	647.91931	-154.08071	176.17920	628.35888	-959.95773	1030.61729	487.33364	-952.78595	1037.25243	646.88858	-1114.34441	1040.24948	661.04584	-1084.61929	1043.40492	479.23767	-1021.13373	1383.70209	574.44111	-1161.33347	1413.91037	567.26055	-977.51556	1595.87921	572.77008	-1116.38145	1560.50156	667.51564	-1127.65701	1558.10547	504.64996	-1113.65372	1355.37216	750.23315	-1105.89035	1059.36798	769.80469	-1146.36749	1052.27379	719.31129	-1073.32062	1053.09792	720.82062	-1092.44392	811.18546	789.44931	-1051.67664	822.30698	806.01761	-1034.90913	824.28574	769.00497	-1059.79492	1355.72540	394.79237	-1107.47650	1044.81880	417.52121	-1038.01079	1051.57700	400.50522	-1085.88211	1048.46397	373.15132	-1033.96034	821.95419	392.69592	-1054.50661	824.36340	357.80205	-1011.83235	831.20331	342.34039	-1062.96638	879.62250	742.62268	-1022.00829	890.44670	406.34609	-1027.50786	451.20415	654.86557	-1137.40921	487.92961	694.11880	-1111.03310	486.54251	576.84505	-1008.27507	462.54757	515.97187	-1092.43279	481.65321	419.71642	-1115.95329	479.53636	543.90247	-1102.14783	167.05608	675.15350	-1131.36955	163.89013	607.33437	-1183.74397	155.42483	673.66089	-1065.97305	167.14561	458.84792	-1127.16309	169.91255	423.36613	-1125.54321	173.61437	512.87998 
160	27.150	-243.11499	1069.93027	585.58296	-310.90590	1070.79704	388.05344	-143.97447	1110.61516	294.87732	-60.19319	1100.36201	528.17623	-262.35704	1446.05865	463.31680	-153.72415	1504.79111	438.83141	-326.03184	1663.32062	469.33781	-218.43269	1633.78525	343.00922	-156.66753	1638.77289	478.91617	-243.37591	1432.21710	244.86872	-199.03784	1114.48578	157.47950	-167.89665	1098.61893	208.41640	-262.15397	1121.34224	201.26635	-284.38452	882.41570	169.90774	-316.44011	894.77066	200.71590	-290.50507	891.20506	235.31168	-154.45513	1455.02625	631.45458	-90.96527	1141.81137	643.83591	-151.20831	1158.21068	708.34213	-82.19478	1162.45857	711.86203	-200.77763	899.08478	700.46280	-188.12599	892.79915	744.96178	-141.99295	891.43677	735.12634	-185.49625	918.67180	257.36723	-144.91969	894.56459	623.80226	-207.26147	415.21751	348.23914	-141.25759	443.65437	294.84251	-141.70198	435.49118	419.45496	-221.82589	453.41930	653.85406	-115.83250	480.24132	646.58173	-200.91127	442.48997	562.08359	-159.06987	172.98935	345.63374	-135.22711	174.65557	408.55469	-81.98744	168.47429	340.39246	-133.60737	178.44110	701.73058	-73.36594	178.07135	649.97810	-150.11686	175.46247	630.68977	-959.96582	1030.54146	487.67014	-952.85027	1037.22809	647.15645	-1114.64325	1040.19569	661.25504	-1084.64111	1043.21426	479.41082	-1021.29768	1383.54828	573.98254	-1161.35506	1413.96225	567.51839	-976.98326	1595.63477	572.12463	-1115.07240	1560.17288	667.83203	-1127.77687	1558.30673	505.10693	-1114.87015	1354.54605	749.67079	-1105.73059	1058.50227	768.75549	-1148.10143	1051.58417	719.91882	-1074.99382	1052.47284	718.69308	-1092.13310	810.38483	787.70309	-1051.09146	821.32523	803.64708	-1035.07759	823.26035	766.40549	-1060.07637	1355.37430	394.71920	-1107.93968	1044.47853	414.76837	-1038.28117	1051.46103	398.71983	-1085.60043	1048.50281	370.73120	-1032.86026	822.32384	390.59345	-1052.54662	824.32610	355.55801	-1009.85046	831.52214	340.36674	-1063.21266	879.33784	742.67921	-1021.94626	890.43083	406.49727	-1027.61436	451.13392	655.21187	-1137.35039	487.91386	694.26697	-1111.00967	486.57936	576.94450	-1008.14133	462.56626	515.97023	-1092.45796	481.77601	419.87198	-1115.87662	479.55059	544.07352	-1102.18155	167.05202	675.22514	-1131.39687	163.90726	607.38239	-1183.71689	155.42377	673.70659	-1065.97839	167.19368	458.84701	-1127.19177	169.96599	423.45394	-1125.52002	173.67289	512.97913 
161	27.167	-244.69051	1069.35181	590.20882	-311.46271	1070.48256	392.23114	-145.84950	1110.77377	301.71886	-61.35084	1100.23476	533.68263	-262.59909	1446.16470	468.56407	-153.89086	1504.30710	443.30830	-325.87582	1663.59238	474.15855	-219.27639	1633.25897	347.12608	-156.62645	1638.89099	482.54860	-241.28450	1430.34271	249.40176	-198.49520	1113.15353	160.92968	-168.05439	1096.69533	212.04472	-261.95145	1120.16212	204.05596	-285.61420	881.54243	171.35120	-317.72594	893.96416	202.08838	-292.06070	889.92783	236.56910	-152.09829	1453.22037	635.94261	-91.75734	1139.49600	648.84827	-152.16730	1156.42517	712.98515	-83.30160	1160.14725	716.93054	-204.39829	897.64999	704.11057	-191.62071	891.29440	749.06975	-145.42087	889.69772	739.86488	-185.65575	919.15512	262.06049	-145.53599	893.72940	628.09917	-207.63302	414.99760	349.80865	-141.46853	444.04800	297.12612	-142.09221	435.11841	421.71986	-216.65966	451.87840	657.62817	-110.62983	480.57446	649.52744	-197.41402	441.55022	565.79651	-159.08625	173.15918	346.25443	-135.41287	174.50459	409.35795	-82.10904	168.76446	341.26965	-128.33760	177.91630	702.77733	-68.54972	177.47133	649.75571	-146.41995	175.10923	631.40797	-959.93759	1030.58578	487.37778	-952.89856	1037.23122	647.37877	-1114.58534	1039.99107	661.42136	-1084.99283	1043.20984	479.72034	-1021.57623	1383.36334	573.61858	-1161.47095	1414.09561	567.54650	-976.38863	1595.37537	571.88011	-1114.32129	1559.91150	667.98378	-1127.65793	1558.53180	505.31361	-1115.85510	1353.69720	749.18221	-1105.78064	1057.80701	768.26782	-1149.89723	1050.84389	721.37589	-1076.90529	1051.59912	717.06779	-1091.54503	810.04730	787.89291	-1050.39162	821.00548	803.70941	-1034.27811	823.26241	766.48392	-1060.31700	1355.29053	394.80556	-1108.39417	1044.29428	411.06056	-1038.12485	1051.38145	396.34624	-1084.90517	1048.50586	367.64866	-1031.64719	822.71347	388.16715	-1050.49850	824.35928	352.79594	-1007.73026	831.81091	338.26340	-1063.40660	879.08447	742.72400	-1021.88400	890.41519	406.64852	-1027.53342	451.15532	655.31509	-1137.23770	487.89665	694.35379	-1110.94345	486.61373	577.03560	-1008.23883	462.73521	516.05965	-1092.46292	481.82823	419.93351	-1115.94971	479.60201	544.17107	-1102.35413	166.91694	675.17494	-1131.35971	163.88874	607.44183	-1183.71361	155.42610	673.77892	-1065.99564	167.23177	458.86467	-1127.19460	169.99634	423.44841	-1125.50476	173.66833	512.95673 
162	27.183	-246.06199	1068.84102	594.86191	-312.07840	1070.18562	397.05391	-146.09435	1110.93208	306.84118	-62.44057	1100.21446	539.27162	-263.04441	1446.21048	474.16801	-154.31484	1503.87741	448.15788	-325.78262	1663.91068	479.02344	-219.84852	1632.71378	351.51943	-156.44047	1639.12262	486.52981	-238.96288	1428.08167	254.21095	-197.77987	1111.40961	164.87640	-168.24333	1094.18327	216.37293	-261.37659	1118.70155	207.61007	-286.91174	880.60249	172.82434	-319.08417	893.02795	203.55318	-293.89771	888.55583	238.23654	-149.84926	1451.29684	640.69702	-92.70056	1136.91895	653.85368	-153.08175	1154.55673	717.70859	-84.12738	1157.55096	721.87386	-207.68595	896.35628	708.41316	-195.59364	889.81400	753.57681	-149.27173	887.82143	745.02907	-185.90246	919.58412	266.95372	-145.97976	893.05962	632.54028	-207.94842	415.23273	352.11098	-141.76556	444.44614	299.70150	-142.70364	434.84795	424.01196	-210.01768	450.67436	661.44714	-104.14150	480.10380	650.87303	-194.17612	440.88329	568.82050	-159.12559	173.35070	347.05719	-135.71395	174.39268	410.09396	-82.19929	169.02382	342.04678	-124.90617	176.53872	703.36319	-66.63201	175.54274	648.94485	-144.74965	174.36186	632.52384	-960.45990	1030.52567	487.67048	-953.01529	1037.26730	647.44011	-1114.40643	1039.79683	661.52855	-1085.21423	1043.17131	479.85847	-1021.96472	1383.13248	573.45261	-1161.72966	1414.27841	567.36603	-975.85152	1595.01602	571.97357	-1113.90854	1559.78226	668.01086	-1127.28302	1558.71841	505.27611	-1116.71768	1353.22220	749.26140	-1105.68512	1057.45628	769.04205	-1151.71906	1050.31456	723.69385	-1078.82622	1050.23621	716.82083	-1090.84198	809.88808	789.48883	-1049.77386	821.19743	804.76105	-1034.05304	823.43002	767.38136	-1060.42503	1355.41580	394.85813	-1108.67233	1044.36424	406.79527	-1037.92038	1051.42731	394.14307	-1083.64738	1048.68492	364.22176	-1030.27023	823.09700	385.48504	-1048.42529	824.46793	349.62261	-1005.30739	832.01202	336.05976	-1063.57254	878.84018	742.75154	-1021.92398	890.40314	406.83922	-1027.64435	451.09329	655.66360	-1137.16438	487.87800	694.45419	-1110.84717	486.62010	577.11048	-1008.25912	462.70725	516.08032	-1092.41730	481.77814	419.90593	-1116.00914	479.60224	544.10126	-1102.42096	166.88873	675.38445	-1131.34018	163.87918	607.47601	-1183.68446	155.42500	673.81897	-1065.99617	167.22557	458.87577	-1127.16125	170.00420	423.40122	-1125.56892	173.67489	512.93854 
